<?xml version="1.0" standalone="no"?><!DOCTYPE svg PUBLIC "-//W3C//DTD SVG 1.1//EN" "http://www.w3.org/Graphics/SVG/1.1/DTD/svg11.dtd"><svg class="icon" width="200px" height="200.00px" viewBox="0 0 1024 1024" version="1.1" xmlns="http://www.w3.org/2000/svg"><path d="M544.224 751.712a208.64 208.64 0 1 1 417.28 0 208.64 208.64 0 0 1-417.28 0z" fill="#858585" /><path d="M544.224 272.32a208.64 208.64 0 0 1 417.28 0v187.744c0 11.52-9.344 20.864-20.864 20.864H565.088a20.864 20.864 0 0 1-20.864-20.864z" fill="#CCCCCC" /><path d="M479.776 751.712a208.64 208.64 0 1 1-417.28 0v-187.776c0-11.52 9.344-20.864 20.864-20.864h375.552c11.52 0 20.864 9.344 20.864 20.864z" fill="#4D4D4D" /></svg>